<?xml version="1.0" encoding="UTF-8" standalone="no"?>
<!-- Creator: CorelDRAW -->

<svg
   xmlns:dc="http://purl.org/dc/elements/1.1/"
   xmlns:cc="http://creativecommons.org/ns#"
   xmlns:rdf="http://www.w3.org/1999/02/22-rdf-syntax-ns#"
   xmlns:svg="http://www.w3.org/2000/svg"
   xmlns="http://www.w3.org/2000/svg"
   xmlns:sodipodi="http://sodipodi.sourceforge.net/DTD/sodipodi-0.dtd"
   xmlns:inkscape="http://www.inkscape.org/namespaces/inkscape"
   xml:space="preserve"
   width="2.7093301in"
   height="2.5999999in"
   style="clip-rule:evenodd;fill-rule:evenodd;image-rendering:optimizeQuality;shape-rendering:geometricPrecision;text-rendering:geometricPrecision"
   viewBox="0 0 2.7093301 2.5999999"
   id="svg2"
   version="1.1"
   inkscape:version="0.91 r13725"
   sodipodi:docname="Mahamudra seal red.svg"
   shape-rendering="crispEdges"><title
   id="title3342">Mah훮mdr훮 seal</title><metadata
   id="metadata14"><rdf:RDF><cc:Work
       rdf:about=""><dc:format>image/svg+xml</dc:format><dc:type
         rdf:resource="http://purl.org/dc/dcmitype/StillImage" /><dc:title>Mah훮mdr훮 seal</dc:title><dc:date>2016-09-24</dc:date><dc:creator><cc:Agent><dc:title>Christopher J. Fynn</dc:title></cc:Agent></dc:creator><dc:contributor><cc:Agent><dc:title>Christopher J. Fynn</dc:title></cc:Agent></dc:contributor><cc:license
         rdf:resource="http://creativecommons.org/licenses/by-sa/3.0/" /></cc:Work><cc:License
       rdf:about="http://creativecommons.org/licenses/by-sa/3.0/"><cc:permits
         rdf:resource="http://creativecommons.org/ns#Reproduction" /><cc:permits
         rdf:resource="http://creativecommons.org/ns#Distribution" /><cc:requires
         rdf:resource="http://creativecommons.org/ns#Notice" /><cc:requires
         rdf:resource="http://creativecommons.org/ns#Attribution" /><cc:permits
         rdf:resource="http://creativecommons.org/ns#DerivativeWorks" /><cc:requires
         rdf:resource="http://creativecommons.org/ns#ShareAlike" /></cc:License></rdf:RDF></metadata><sodipodi:namedview
   pagecolor="#ffffff"
   bordercolor="#666666"
   borderopacity="1"
   objecttolerance="10"
   gridtolerance="10"
   guidetolerance="10"
   inkscape:pageopacity="0"
   inkscape:pageshadow="2"
   inkscape:window-width="1280"
   inkscape:window-height="719"
   id="namedview12"
   showgrid="false"
   showguides="false"
   inkscape:zoom="1.0488889"
   inkscape:cx="133.62747"
   inkscape:cy="111.54661"
   inkscape:window-x="-4"
   inkscape:window-y="-4"
   inkscape:window-maximized="1"
   inkscape:current-layer="svg2" />
 <defs
   id="defs4"><style
     type="text/css"
     id="style6">
   <![CDATA[
    .fil0 {fill:#CC3300;fill-rule:nonzero}
   ]]>
  </style></defs>
 <g
   id="Layer_x0020_1"
   transform="translate(0.0529661,0.06718456)">
  <metadata
   id="CorelCorpID_0Corel-Layer" />
  <path
   class="fil0"
   d="m 2.26634,1.19213 0,0.110933 -0.821268,0 0,0.063745 0.821268,0 c 0,0.09438 0,0.188765 0,0.283146 l -0.00222,0.00298 0.00196,0.082305 -0.075796,0.00125 -0.00455,-0.083555 -0.84332,-0.00298 0,-0.102657 0.410632,0 0.05133,0.076905 0.051326,-0.076905 0.307491,-0.00152 5.09e-4,-0.074351 -0.821288,-0.00196 0,-0.277335 0.923925,0 z m -0.258258,-0.552527 -0.564619,0 0,0.0524354 0.564619,0 0,-0.0524354 z m -0.666585,0.483688 0,-0.262152 0.769937,0 0,0.104858 -0.66728,0 0,0.0524313 0.718607,0 0,-0.220584 0.051074,0 -4.345e-4,-9.4765e-4 -0.102657,-0.157294 0,0.157294 -0.769937,0 0,-0.262152 0.667276,0 0,-0.0524313 -0.667276,0 0,-0.104863 0.769937,0 0,0.183418 0.051326,0.0787338 0,-0.262152 0.102661,0 c 0,0.248864 -3.104e-4,0.49703 6.911e-4,0.74583995 l -0.923925,0 z m 0.923813,0.583249 0,0.25664 -0.66728,0 0,0.051331 0.66728,0 0,0.102657 -0.769937,0 0,-0.256644 0.667276,0 0,-0.05133 -0.718607,0 0,0.307975 -0.102657,0 0,-0.410632 0.923925,4.1e-6 z m -0.990504,0.016445 0,0.233396 -0.66728,0 0,0.050672 0.66728,0 0,0.101341 -0.769937,0 0,-0.253354 0.667276,0 0,-0.050673 -0.718607,0 0,0.304027 -0.102657,0 0,-0.405368 0.821843,0 0,-0.3576 -0.051326,0 0,0.304027 -0.769937,0 0,-0.253354 0.513289,0 0,-0.050673 -0.513289,0 0,-0.101341 0.61595,0 0,0.253354 -0.513293,0 0,0.050673 0.564619,0 0,-0.304027 0.256648,0 0,0.4789 -5.794e-4,0 z M 1.277676,1.191062 1.227583,1.190052 1.124926,1.025909 l 0,0.152013 -0.76993701,0 0,-0.25335396 0.66727601,0 0,-0.0506725 -0.66727601,0 0,-0.101341 0.76993701,0 0,0.177261 0.051326,0.0760936 0,-0.25335356 0.102661,0 -0.00124,0.41851056 z m -0.255411,-0.165156 -0.56461901,0 0,0.050673 0.56461901,0 0,-0.050673 z M 1.276397,0.3818 l 0,0.334646 -0.92391201,0 0,-0.334646 0.102657,0 0,0.250983 0.307971,0 0,-0.167321 -0.153983,0 0,0.0418292 0.102657,0 0,0.0836625 -0.205318,0 0,-0.209154 0.359301,0 0,0.250983 0.30797101,0 0,-0.167321 -0.153987,0 0,0.0418292 0.102661,0 0,0.0836625 -0.20531401,0 0,-0.209154 0.35929701,0 z m -1.03610001,-0.104511 0,1.95898 2.12773001,0 0,-1.95898 -2.12773001,0 z M 0.11566779,0.0040303 2.5267478,7.95e-6 c 0.037757,-1.61391e-4 0.082578,0.0672379 0.082578,0.105293 L 2.6052374,2.397881 C 2.6051505,2.450014 2.5699094,2.487002 2.5085724,2.48732 L 0.10415263,2.5000041 C 0.02961493,2.500393 -5.237e-5,2.4511317 1.63e-6,2.3991971 L 0.00115619,1.3050671 0.0024018,0.11300705 c 0,-0.0758702 0.0375544,-0.108666 0.113267,-0.108964 z"
   id="path10"
   inkscape:connector-curvature="0"
   style="fill:#cc3300;fill-rule:nonzero" />
 </g>
</svg>